<svg width="21" height="20" viewBox="0 0 21 20" fill="none" xmlns="http://www.w3.org/2000/svg">
<path d="M2.99998 2.5L5.99095 5.49097M18 17.5L15.0093 14.5093M12.0624 15.6872C11.5564 15.7831 11.0342 15.8333 10.5004 15.8333C6.76898 15.8333 3.6104 13.3809 2.54852 9.99997C2.8376 9.07958 3.28207 8.22801 3.85117 7.47598M8.73221 8.23223C9.18462 7.77982 9.80962 7.5 10.5 7.5C11.8807 7.5 13 8.61929 13 10C13 10.6904 12.7202 11.3154 12.2677 11.7678M8.73221 8.23223L12.2677 11.7678M8.73221 8.23223L5.99095 5.49097M12.2677 11.7678L5.99095 5.49097M12.2677 11.7678L15.0093 14.5093M5.99095 5.49097C7.2908 4.65295 8.83878 4.16667 10.5003 4.16667C14.2317 4.16667 17.3903 6.61909 18.4522 10C17.8631 11.8756 16.6287 13.4654 15.0093 14.5093" stroke="#101010" stroke-width="2" stroke-linecap="round" stroke-linejoin="round"/>
</svg>
